<?xml version="1.0" encoding="UTF-8"?>
<svg id="Calque_2" data-name="Calque 2" xmlns="http://www.w3.org/2000/svg" viewBox="0 0 527.83 531.19">
  <defs>
    <style>
      .cls-1 {
        fill: #fff;
      }
    </style>
  </defs>
  <g id="Calque_1-2" data-name="Calque 1">
    <g>
      <path d="M262.87,531.19c-54,0-107.99,0-161.99,0-16.02,0-31.89-.35-47.11-6.72-25.42-10.64-41.69-29.32-49.07-55.48-2.72-9.64-4.45-19.92-4.47-29.91C-.03,322.58-.18,206.08,.41,89.58,.56,58.87,12.53,32.78,38.78,15,52.82,5.49,68.52,.3,85.7,.29c76.83-.03,153.66-.07,230.49-.11,41.16-.02,82.32-.41,123.48,.01,41.08,.42,74.55,25.34,83.78,65.14,2.16,9.33,3.48,19.07,3.51,28.63,.38,98.99,.41,197.98,.57,296.98,.03,16.33,.35,32.66,.3,49-.1,31.99-12.68,57.92-38.94,76.37-15.11,10.62-32.63,14.73-51.05,14.72-37.99-.03-75.99-.17-113.98-.23-20.33-.03-40.66,0-60.99,0,0,.13,0,.26,0,.39Zm9.02-102.75c1.32,.2,1.97,.38,2.61,.38,29.66-.03,59.32,.38,88.97-.21,59.12-1.18,101.6-46.99,96.62-103.74-2.29-26.06-13.12-47.55-34.47-63.26-7.95-5.85-7.77-6.03,.03-12.65,17.17-14.56,28.17-32.91,31.02-55.34,5.11-40.27-16.14-76.36-52.06-95.54-16.08-8.58-33.7-9.59-51.52-9.34-24.15,.33-48.31,.41-72.47,.59-2.91,.02-5.83,0-8.86,0,0,5.21,0,10.03,0,14.85,.04,42.99,.12,85.97,.05,128.96,0,3.62,.72,4.99,4.66,4.79,6.64-.34,13.32,.13,19.99,.02,6.25-.1,12.49-.51,18.77-.79v-102.2c14,0,27.48,.07,40.95-.02,9.09-.06,17.65,1.2,26.12,5.21,18.51,8.74,27.86,23.58,29.16,43.21,1.69,25.42-20.82,48.71-46.3,49.03-10.44,.13-20.88,.02-31.34,.02,0,15.28-.09,29.22,.17,43.15,.02,1.14,2.45,3.14,3.82,3.19,5.81,.24,11.65,.08,17.46-.28,15.26-.95,28.56,3.56,39.94,13.78,16.18,14.53,21.69,32.81,16.19,53.4-5.44,20.39-20.01,32.64-40.72,35.68-12.58,1.85-25.57,.95-38.38,1.2-5.6,.11-11.21,.02-16.75,.02v-119.88h-43.67v165.77Zm-20.81,.28c0-9.54-.34-18.18,.06-26.79,1.33-28.22,5.34-56.42-.43-84.61-3.47-16.94-6.83-33.9-10.18-50.86-.61-3.06-2.02-4.47-5.4-4.42-11.32,.14-22.65-.03-33.97-.07-2.23,0-4.46,0-7.3,0,2.15,8.24,4.06,15.57,6.02,23.12h-59.21c1.73-7.99,3.34-15.42,5.01-23.09-13.71,0-26.19,.2-38.65-.1-4.99-.12-7.1,.84-8.46,6.48-10.08,41.87-20.76,83.6-31.31,125.36-2.88,11.41-6,22.76-9.08,34.4,1.21,.23,2.14,.58,3.07,.57,13.33-.08,26.65-.32,39.97-.26,3.56,.01,4.54-1.95,5.21-4.74,4.46-18.6,8.93-37.19,13.41-55.78,2.91-12.07,5.83-24.14,8.61-35.66,25.78,0,51.24,.1,76.71-.11,3.72-.03,4.86,1.36,5.54,4.58,1.65,7.8,3.4,15.59,5.41,23.3,5.63,21.57,11.36,43.1,17.21,64.61,.42,1.54,2.03,3.76,3.28,3.9,4.42,.48,8.92,.19,14.47,.19Zm-15.54-191.19c-.29-2.09-.32-3.23-.61-4.3-7.01-26.04-14.27-52.02-20.99-78.14-5.26-20.46-9.94-41.07-14.67-61.67-.93-4.05-2.57-5.12-6.79-4.86-10.12,.62-20.29,.47-30.45,.58-5.92,.06-11.84,.01-16.9,.01-12.99,49.37-25.93,98.57-39.04,148.37,15.13,0,29.39,.07,43.65-.14,1.03-.01,2.65-1.87,2.96-3.12,5.36-21.83,10.54-43.7,15.8-65.55,.31-1.29,.87-2.53,1.31-3.79,1.58,1.83,2.19,3.52,2.63,5.26,5.36,21.13,10.79,42.25,15.96,63.43,.81,3.33,2.22,4.16,5.46,4.01,6.48-.28,12.98-.09,19.47-.09,7.26,0,14.53,0,22.2,0Z"/>
      <path class="cls-1" d="M271.88,428.44v-165.77h43.67v119.88c5.54,0,11.15,.09,16.75-.02,12.81-.25,25.8,.65,38.38-1.2,20.7-3.05,35.27-15.29,40.72-35.68,5.5-20.59-.01-38.87-16.19-53.4-11.37-10.22-24.68-14.72-39.94-13.78-5.81,.36-11.65,.52-17.46,.28-1.37-.06-3.8-2.05-3.82-3.19-.27-13.94-.17-27.88-.17-43.15,10.46,0,20.9,.11,31.34-.02,25.47-.32,47.98-23.61,46.3-49.03-1.3-19.63-10.65-34.47-29.16-43.21-8.47-4-17.03-5.27-26.12-5.21-13.47,.1-26.95,.02-40.95,.02v102.2c-6.28,.28-12.52,.68-18.77,.79-6.66,.11-13.34-.36-19.99-.02-3.95,.2-4.67-1.17-4.66-4.79,.08-42.99,0-85.97-.05-128.96,0-4.82,0-9.64,0-14.85,3.03,0,5.95,.02,8.86,0,24.16-.18,48.31-.26,72.47-.59,17.82-.24,35.44,.76,51.52,9.34,35.93,19.18,57.17,55.28,52.06,95.54-2.85,22.43-13.85,40.79-31.02,55.34-7.81,6.62-7.98,6.8-.03,12.65,21.35,15.71,32.18,37.2,34.47,63.26,4.99,56.75-37.5,102.56-96.62,103.74-29.65,.59-59.31,.18-88.97,.21-.65,0-1.29-.18-2.61-.38Z"/>
      <path class="cls-1" d="M251.07,428.72c-5.55,0-10.05,.29-14.47-.19-1.25-.13-2.86-2.35-3.28-3.9-5.85-21.5-11.59-43.04-17.21-64.61-2.01-7.71-3.76-15.5-5.41-23.3-.68-3.21-1.83-4.61-5.54-4.58-25.46,.21-50.93,.11-76.71,.11-2.78,11.53-5.71,23.59-8.61,35.66-4.48,18.59-8.95,37.19-13.41,55.78-.67,2.79-1.65,4.76-5.21,4.74-13.32-.06-26.65,.18-39.97,.26-.93,0-1.87-.34-3.07-.57,3.08-11.64,6.19-22.99,9.08-34.4,10.56-41.76,21.23-83.49,31.31-125.36,1.36-5.64,3.48-6.6,8.46-6.48,12.47,.29,24.94,.1,38.65,.1-1.66,7.67-3.27,15.1-5.01,23.09h59.21c-1.97-7.55-3.87-14.88-6.02-23.12,2.83,0,5.07,0,7.3,0,11.32,.04,22.65,.21,33.97,.07,3.38-.04,4.79,1.36,5.4,4.42,3.35,16.96,6.72,33.92,10.18,50.86,5.77,28.19,1.76,56.39,.43,84.61-.4,8.61-.06,17.25-.06,26.79Z"/>
      <path class="cls-1" d="M235.53,237.53c-7.68,0-14.94,0-22.2,0-6.49,0-12.99-.19-19.47,.09-3.24,.14-4.64-.68-5.46-4.01-5.17-21.18-10.6-42.3-15.96-63.43-.44-1.74-1.05-3.43-2.63-5.26-.44,1.26-1,2.5-1.31,3.79-5.25,21.85-10.44,43.72-15.8,65.55-.31,1.25-1.93,3.1-2.96,3.12-14.26,.21-28.53,.14-43.65,.14,13.1-49.8,26.05-99,39.04-148.37,5.06,0,10.98,.05,16.9-.01,10.15-.11,20.32,.04,30.45-.58,4.23-.26,5.87,.82,6.79,4.86,4.73,20.59,9.41,41.21,14.67,61.67,6.72,26.12,13.99,52.1,20.99,78.14,.29,1.07,.32,2.21,.61,4.3Z"/>
    </g>
  </g>
</svg>